<?xml version="1.0" encoding="UTF-8" standalone="no"?>
<svg
   xmlns:dc="http://purl.org/dc/elements/1.1/"
   xmlns:cc="http://creativecommons.org/ns#"
   xmlns:rdf="http://www.w3.org/1999/02/22-rdf-syntax-ns#"
   xmlns:svg="http://www.w3.org/2000/svg"
   xmlns="http://www.w3.org/2000/svg"
   xmlns:sodipodi="http://sodipodi.sourceforge.net/DTD/sodipodi-0.dtd"
   xmlns:inkscape="http://www.inkscape.org/namespaces/inkscape"
   inkscape:version="1.0 (4035a4f, 2020-05-01)"
   sodipodi:docname="icon.svg"
   id="svg6"
   version="1.1"
   height="100"
   width="100">
  <metadata
     id="metadata12">
    <rdf:RDF>
      <cc:Work
         rdf:about="">
        <dc:format>image/svg+xml</dc:format>
        <dc:type
           rdf:resource="http://purl.org/dc/dcmitype/StillImage" />
      </cc:Work>
    </rdf:RDF>
  </metadata>
  <defs
     id="defs10" />
  <sodipodi:namedview
     inkscape:current-layer="svg6"
     inkscape:window-maximized="1"
     inkscape:window-y="25"
     inkscape:window-x="85"
     inkscape:cy="50"
     inkscape:cx="50"
     inkscape:zoom="10.08"
     showgrid="false"
     id="namedview8"
     inkscape:window-height="1387"
     inkscape:window-width="2475"
     inkscape:pageshadow="2"
     inkscape:pageopacity="0"
     guidetolerance="10"
     gridtolerance="10"
     objecttolerance="10"
     borderopacity="1"
     bordercolor="#666666"
     pagecolor="#ffffff" />
  <style
     id="style2">
    circle {
      fill: #DBC364;
      stroke: #7C8635;
      stroke-width: 3px;
    }
    @media (prefers-color-scheme: dark) {
      circle {
        fill: #7C8635;
        stroke: #DBC364;
      }
    }
  </style>
  <circle
     id="circle4"
     r="47"
     cy="50"
     cx="50" />
  <g
     style="font-size:72px;line-height:1;font-family:Athelas;-inkscape-font-specification:Athelas;fill:#241f20"
     id="text839"
     aria-label="RI">
    <path
       id="path841"
       d="m 35.72825,52.268 h -5.328 v 15.84 q 0,1.584 1.44,2.16 1.512,0.576 4.536,0.936 0.864,0.144 0.864,1.224 0,0.504 -0.144,1.224 -1.944,-0.144 -4.752,-0.288 -2.736,-0.072 -5.4,-0.072 -1.872,0 -4.32,0.072 -2.448,0.144 -4.608,0.288 -0.144,-0.72 -0.144,-1.152 0,-1.008 0.792,-1.152 2.736,-0.432 3.816,-1.008 1.152,-0.648 1.152,-2.088 V 31.604 q 0,-1.368 -1.08,-2.016 -1.008,-0.72 -4.032,-1.08 -0.72,-0.072 -0.72,-1.224 0,-0.432 0.144,-1.152 2.16,0.144 4.464,0.288 2.304,0.072 4.392,0.072 h 9.72 q 7.776,0 11.736,3.456 3.96,3.384 3.96,9.216 0,1.584 -0.576,3.312 -0.504,1.728 -1.656,3.384 -1.08,1.656 -2.88,3.096 -1.728,1.368 -4.104,2.232 l 12.024,16.704 q 1.368,1.872 3.024,2.592 1.656,0.72 3.096,1.08 0.648,0.144 0.648,1.008 0,0.576 -0.144,1.296 -1.656,-0.144 -4.032,-0.288 -2.376,-0.072 -4.392,-0.072 -1.512,0 -3.096,-1.296 -1.512,-1.296 -2.88,-3.312 z m -1.512,-2.952 q 5.04,0 7.776,-2.088 2.736,-2.16 2.736,-7.488 0,-2.232 -0.576,-4.104 -0.576,-1.872 -1.872,-3.24 -1.224,-1.368 -3.312,-2.16 -2.016,-0.792 -4.968,-0.792 h -3.6 v 19.872 z" />
    <path
       id="path843"
       d="m 76.72775,68.252 q 0,1.44 1.008,2.016 1.008,0.504 3.744,1.08 0.72,0.144 0.72,1.152 0,0.432 -0.144,1.152 -2.232,-0.144 -4.464,-0.288 -2.232,-0.072 -4.248,-0.072 -1.944,0 -4.32,0.072 -2.304,0.144 -4.392,0.288 -0.144,-0.72 -0.144,-1.152 0,-1.008 0.72,-1.152 2.736,-0.504 3.744,-1.08 1.008,-0.576 1.008,-2.016 V 31.604 q 0,-1.44 -1.008,-2.016 -1.008,-0.648 -3.744,-1.08 -0.432,-0.072 -0.576,-0.432 -0.144,-0.36 -0.144,-0.792 0,-0.432 0.144,-1.152 2.16,0.144 4.464,0.288 2.376,0.072 4.248,0.072 1.8,0 4.104,-0.072 2.376,-0.144 4.608,-0.288 0.144,0.72 0.144,1.152 0,1.08 -0.72,1.224 -2.736,0.432 -3.744,1.08 -1.008,0.576 -1.008,2.016 z" />
  </g>
</svg>
